HIERARCHY
ROOT Hips
{
	OFFSET 0.00000 0.00000 0.00000
	CHANNELS 6 Xposition Yposition Zposition Zrotation Yrotation Xrotation 
	JOINT LHipJoint
	{
		OFFSET 0 0 0
		CHANNELS 3 Zrotation Yrotation Xrotation
		JOINT LeftHip
		{
			OFFSET 1.28858 -1.83292 1.03970
			CHANNELS 3 Zrotation Yrotation Xrotation
			JOINT LeftKnee
			{
				OFFSET 2.47846 -6.80952 0.00000
				CHANNELS 3 Zrotation Yrotation Xrotation
				JOINT LeftAnkle
				{
					OFFSET 2.75274 -7.56311 0.00000
					CHANNELS 3 Zrotation Yrotation Xrotation
					JOINT LeftToe
					{
						OFFSET 0.12848 -0.35301 1.68223
						CHANNELS 3 Zrotation Yrotation Xrotation
						End Site
						{
							OFFSET 0.00000 -0.00000 0.87311
						}
					}
				}
			}
		}
	}
	JOINT RHipJoint
	{
		OFFSET 0 0 0
		CHANNELS 3 Zrotation Yrotation Xrotation
		JOINT RightHip
		{
			OFFSET -1.31183 -1.83292 1.03970
			CHANNELS 3 Zrotation Yrotation Xrotation
			JOINT RightKnee
			{
				OFFSET -2.44740 -6.72417 0.00000
				CHANNELS 3 Zrotation Yrotation Xrotation
				JOINT RightAnkle
				{
					OFFSET -2.67343 -7.34519 0.00000
					CHANNELS 3 Zrotation Yrotation Xrotation
					JOINT RightToe
					{
						OFFSET -0.16914 -0.46471 1.77626
						CHANNELS 3 Zrotation Yrotation Xrotation
						End Site
						{
							OFFSET -0.00000 -0.00000 0.92777
						}
					}
				}
			}
		}
	}
	JOINT lowerback
	{
		OFFSET 0 0 0
		CHANNELS 3 Zrotation Yrotation Xrotation
		JOINT Chest
		{
			OFFSET 0.01249 2.14252 0.03842
			CHANNELS 3 Zrotation Yrotation Xrotation
			JOINT Chest2
			{
				OFFSET -0.02957 2.14199 -0.03751
				CHANNELS 3 Zrotation Yrotation Xrotation
				JOINT lowerneck
				{
					OFFSET 0 0 0
					CHANNELS 3 Zrotation Yrotation Xrotation
					JOINT Neck
					{
						OFFSET -0.01678 1.65709 -0.05476
						CHANNELS 3 Zrotation Yrotation Xrotation
						JOINT Head
						{
							OFFSET 0.07912 1.58331 -0.11843
							CHANNELS 3 Zrotation Yrotation Xrotation
							End Site
							{
								OFFSET 0.03298 1.73940 -0.04271
							}
						}
					}
				}
				JOINT LeftCollar
				{
					OFFSET 0 0 0
					CHANNELS 3 Zrotation Yrotation Xrotation
					JOINT LeftShoulder
					{
						OFFSET 3.39556 1.16496 0.08673
CHANNELS 3 Zrotation Xrotation Yrotation
						JOINT LeftElbow
						{
OFFSET 0 -5.239100 -0.000000
CHANNELS 3 Zrotation Xrotation Yrotation
							JOINT LeftWrist
							{
OFFSET 0 -3.314670 0.000000
CHANNELS 3 Zrotation Xrotation Yrotation
								JOINT lhand
								{
									OFFSET 0 0 0
CHANNELS 3 Zrotation Xrotation Yrotation
									JOINT LFingers
									{
OFFSET 0 -0.965900 0.000000
CHANNELS 3 Zrotation Xrotation Yrotation
										End Site
										{
OFFSET 0 -0.778730 0.000000
										}
									}
								}
								JOINT LThumb
								{
OFFSET 0 0.000000 0.000000
CHANNELS 3 Zrotation Xrotation Yrotation
									End Site
									{
OFFSET 0 -0.790620 0.790620
									}
								}
							}
						}
					}
				}
				JOINT RightCollar
				{
					OFFSET 0 0 0
					CHANNELS 3 Zrotation Yrotation Xrotation
					JOINT RightShoulder
					{
						OFFSET -3.27193 1.31331 0.33940
CHANNELS 3 Zrotation Xrotation Yrotation
						JOINT RightElbow
						{
OFFSET 0 -5.302520 0.000000
CHANNELS 3 Zrotation Xrotation Yrotation
							JOINT RightWrist
							{
OFFSET 0 -3.678750 0.000000
CHANNELS 3 Zrotation Xrotation Yrotation
								JOINT rhand
								{
									OFFSET 0 0 0
CHANNELS 3 Zrotation Xrotation Yrotation
									JOINT RFingers
									{
OFFSET 0 -0.594810 0.000000
CHANNELS 3 Zrotation Xrotation Yrotation
										End Site
										{
OFFSET 0 -0.479550 0.000000
										}
									}
								}
								JOINT RThumb
								{
OFFSET 0 0.000000 0.000000
CHANNELS 3 Zrotation Xrotation Yrotation
									End Site
									{
OFFSET 0 -0.486870 0.486870
									}
								}
							}
						}
					}
				}
			}
		}
	}
}
MOTION
Frames: 4
Frame Time: 0.008333333333333333
11.055298 1.696526 -4.466303 -191.805077 -5.408555 91.708470 0.000000 0.000000 0.000000 -12.187878 -5.159991 -104.911052 4.434407 12.716594 38.317460 39.970419 5.635658 175.224402 2.780007 10.329826 30.051770 0.000000 0.000000 0.000000 0.864884 26.276774 -106.909195 -4.664048 -12.993587 39.347277 -40.070609 7.186475 171.621813 -1.344498 -5.261223 15.511759 -8.389172 1.962871 13.830910 -4.494534 5.374525 15.552005 -0.267132 3.728784 9.180491 -2.458163 -1.627104 -2.824803 1.468113 -0.932151 21.727893 0.909111 0.132529 7.119589 0.000000 0.000000 0.000000 36.366684 -51.536326 -57.515805 18.041680 -28.206589 4.571003 30.714010 -1.799137 13.194151 0.000000 0.000000 0.000000 -7.125000 0.000000 0.000000 2.297307 14.735266 1.638799 0.000000 0.000000 0.000000 -15.382944 -45.401902 37.219585 -28.358830 -39.435794 -10.354216 -20.045102 3.837243 33.879177 0.000000 0.000000 0.000000 7.125000 0.000000 0.000000 16.249500 64.837242 -7.896181
11.047516 1.722620 -4.566216 -191.397012 -7.120298 94.299604 0.000000 0.000000 0.000000 -15.377671 -5.904016 -101.321701 4.313048 12.565650 37.763796 39.973731 4.461928 175.980934 3.035698 10.748395 31.440455 0.000000 0.000000 0.000000 -1.991685 24.510556 -104.333601 -4.610298 -12.924640 39.097639 -40.184213 8.256401 173.456871 -5.109559 -13.475930 41.233654 -10.577603 2.067212 14.619738 -4.847515 5.726969 15.972400 0.497102 3.902614 9.264436 -2.577369 -2.006218 -4.004258 1.384509 -1.394668 22.381057 0.870733 -0.102387 7.555353 0.000000 0.000000 0.000000 33.910686 -51.265084 -61.365645 16.691888 -26.447349 3.950413 30.004938 -2.599227 13.494821 0.000000 0.000000 0.000000 -7.125000 0.000000 0.000000 1.783016 14.493349 1.284232 0.000000 0.000000 0.000000 -15.843915 -43.742463 37.449544 -26.466483 -37.663505 -9.172041 -19.325972 -0.147222 33.471012 0.000000 0.000000 0.000000 7.125000 0.000000 0.000000 16.709807 64.250635 -7.896377
11.035473 1.754340 -4.685267 -191.325204 -8.390319 97.642045 0.000000 0.000000 0.000000 -17.953705 -6.777760 -98.973406 4.061490 12.241755 36.592780 39.956626 4.268097 175.543063 1.523764 7.793909 22.090048 0.000000 0.000000 0.000000 -2.674676 23.693791 -103.263412 -3.888579 -12.010583 35.769428 -40.272078 9.807689 172.772638 -4.953742 -13.331202 40.621747 -12.985061 1.740118 14.882469 -5.332066 5.351249 16.063918 1.294701 3.607472 9.325106 -2.013423 -1.614648 -5.019475 1.125546 -0.889527 22.509272 0.724739 0.132373 7.763675 0.000000 0.000000 0.000000 33.534554 -49.506649 -61.531649 15.870116 -25.344239 3.590194 27.933840 -2.706639 12.798232 0.000000 0.000000 0.000000 -7.125000 0.000000 0.000000 0.437138 15.560337 0.303908 0.000000 0.000000 0.000000 -13.674453 -42.339728 38.422992 -25.726011 -36.936804 -8.722410 -17.889003 -0.867180 33.153455 0.000000 0.000000 0.000000 7.125000 0.000000 0.000000 18.065728 63.563746 -8.269063
11.014674 1.786610 -4.825896 -191.450219 -8.819213 101.832566 0.000000 0.000000 0.000000 -18.991388 -7.869968 -98.176579 3.928650 12.064033 35.959991 39.968035 3.996640 176.015607 2.323579 9.507637 27.398261 0.000000 0.000000 0.000000 -3.439475 23.092912 -103.625789 -3.288654 -11.147703 32.780238 -40.220846 9.677364 171.139442 -6.682394 -15.044960 47.638336 -14.377941 1.446824 14.750575 -5.580713 4.913794 15.812056 1.803561 3.280425 9.183385 -1.725611 -1.289399 -4.839059 1.135842 -0.602957 21.263450 0.685028 0.222984 7.313298 0.000000 0.000000 0.000000 33.467227 -47.736437 -61.490846 15.533666 -24.884303 3.447425 29.732822 -4.935255 12.935176 0.000000 0.000000 0.000000 -7.125000 0.000000 0.000000 1.656135 15.169022 1.165467 0.000000 0.000000 0.000000 -12.777577 -40.802022 39.403127 -24.896194 -36.096216 -8.229265 -17.399892 0.601665 32.440574 0.000000 0.000000 0.000000 7.125000 0.000000 0.000000 17.994254 62.762823 -7.897399
